#!OML:ASF I:\Actors\actors\Patient Classification 2\Patient 1\Session 1\actor1.ASF
:FULLY-SPECIFIED
:DEGREES
573
root -1.00137 18.4815 6.78985 -7.58673 13.1486 1.56143
lowerback 4.91692 1.984 10.3319
upperback -2.67029 3.50018 1.96806
thorax -5.09992 1.40752 -4.02235
lowerneck -7.21009 12.324 20.7146
upperneck 28.1368 15.2677 -3.74443
head 12.5559 8.76337 -2.52016
rclavicle 7.11649e-014 3.33958e-014
rhumerus -65.246 -22.1757 -71.8612
rradius 40.1875
rwrist -6.02859
rhand -33.9198 -49.146
rfingers 7.12502
rthumb -7.10217 -79.0068
lclavicle 7.11649e-014 3.33958e-014
lhumerus -50.1569 5.6687 90.9782
lradius 40.433
lwrist 7.35991
lhand -21.1416 -18.3875
lfingers 7.12502
lthumb 5.23759 11.5277
rfemur 0 0 0
rtibia 0
rfoot 0 0
rtoes 0
lfemur 1.0178 4.04273 -12.6478
ltibia 27.9283
lfoot -13.9095 -8.7526
ltoes -56.6512
574
root -1.02568 18.4871 6.78813 -7.6169 13.2715 1.73696
lowerback 4.91041 2.00776 10.2973
upperback -2.67577 3.53219 2.03103
thorax -5.10312 1.42542 -3.93944
lowerneck -7.48894 11.9326 20.3687
upperneck 27.9864 14.8092 -4.15317
head 12.4776 8.47238 -2.70362
rclavicle -8.42847e-014 -5.40694e-014
rhumerus -65.2034 -22.09 -71.8479
rradius 40.089
rwrist -5.81448
rhand -33.9272 -48.9673
rfingers 7.12502
rthumb -7.10932 -78.8278
lclavicle -8.42847e-014 -5.40694e-014
lhumerus -50.2231 5.84258 90.9867
lradius 40.508
lwrist 7.63719
lhand -21.0605 -18.4919
lfingers 7.12502
lthumb 5.31594 11.4214
rfemur 0 0 0
rtibia 0
rfoot 0 0
rtoes 0
lfemur 1.01435 4.05274 -12.6782
ltibia 27.9283
lfoot -13.5156 -9.07268
ltoes -56.7107
575
root -1.04594 18.4915 6.78709 -7.63086 13.3135 1.83717
lowerback 5.00143 2.01803 10.3388
upperback -2.74877 3.56841 2.05663
thorax -5.22788 1.43353 -3.94431
lowerneck -7.44848 11.4555 19.8501
upperneck 27.5888 14.3384 -4.62306
head 12.2198 8.15394 -2.91045
rclavicle -2.66371e-014 -4.13472e-014
rhumerus -65.2567 -21.9714 -71.8661
rradius 39.9985
rwrist -5.52991
rhand -33.9537 -48.8771
rfingers 7.12502
rthumb -7.13491 -78.7369
lclavicle -2.66371e-014 -4.13472e-014
lhumerus -50.4053 5.97035 90.9369
lradius 40.623
lwrist 8.00684
lhand -21.042 -18.6843
lfingers 7.12502
lthumb 5.3338 11.2286
rfemur 0 0 0
rtibia 0
rfoot 0 0
rtoes 0
lfemur 1.00466 4.0299 -12.6735
ltibia 27.9165
lfoot -13.2037 -9.24925
ltoes -56.7775
576
root -1.06077 18.4945 6.78997 -7.60087 13.3001 1.91193
lowerback 4.99347 2.02307 10.3423
upperback -2.78825 3.57918 2.08626
thorax -5.26579 1.43613 -3.91644
lowerneck -7.62156 10.8857 19.0458
upperneck 27.3281 13.7329 -5.0553
head 12.0108 7.74969 -3.06766
rclavicle -4.37326e-014 -3.65764e-014
rhumerus -65.2827 -21.7204 -71.9649
rradius 40.026
rwrist -5.45436
rhand -33.9602 -49.0168
rfingers 7.12502
rthumb -7.1411 -78.8763
lclavicle -4.37326e-014 -3.65764e-014
lhumerus -50.5119 6.22792 90.847
lradius 40.7096
lwrist 8.22376
lhand -21.013 -18.7371
lfingers 7.12502
lthumb 5.36181 11.1751
rfemur 0 0 0
rtibia 0
rfoot 0 0
rtoes 0
lfemur 0.983969 3.99118 -12.6857
ltibia 27.9003
lfoot -13.031 -9.29907
ltoes -56.794
577
root -1.07137 18.496 6.79545 -7.5306 13.2615 1.96766
lowerback 4.90872 2.02798 10.3408
upperback -2.8192 3.5762 2.0741
thorax -5.25001 1.43437 -3.92468
lowerneck -8.09306 10.1773 17.7799
upperneck 27.3347 12.8696 -5.14238
head 11.869 7.21946 -3.04852
rclavicle -1.31198e-014 4.77083e-015
rhumerus -65.3427 -21.5277 -72.0721
rradius 40.083
rwrist -5.48547
rhand -33.9326 -49.3647
rfingers 7.12502
rthumb -7.11454 -79.2251
lclavicle -1.31198e-014 4.77083e-015
lhumerus -50.5862 6.44244 90.7336
lradius 40.7861
lwrist 8.30288
lhand -21.062 -18.6589
lfingers 7.12502
lthumb 5.31453 11.2544
rfemur 0 0 0
rtibia 0
rfoot 0 0
rtoes 0
lfemur 0.954654 3.98402 -12.7073
ltibia 27.8712
lfoot -13.0051 -9.27827
ltoes -56.8255
